<svg xmlns="http://www.w3.org/2000/svg" viewBox="0 0 390 600" width="390" height="600">
  <!-- Left bar -->
  <rect x="0" y="0" width="16" height="600" fill="#0f3460"/>
  <rect x="14" y="0" width="3" height="600" fill="#e94560"/>

  <!-- Right bar -->
  <rect x="374" y="0" width="16" height="600" fill="#0f3460"/>
  <rect x="373" y="0" width="3" height="600" fill="#e94560"/>

  <!-- Top bar -->
  <rect x="0" y="0" width="390" height="16" fill="#0f3460"/>
  <rect x="0" y="14" width="390" height="3" fill="#e94560"/>

  <!-- Corner accent squares -->
  <rect x="0" y="0" width="30" height="30" fill="#e94560"/>
  <rect x="360" y="0" width="30" height="30" fill="#e94560"/>
  <rect x="0" y="0" width="22" height="22" fill="#0f3460"/>
  <rect x="368" y="0" width="22" height="22" fill="#0f3460"/>
  <rect x="6" y="6" width="10" height="10" fill="#e94560"/>
  <rect x="374" y="6" width="10" height="10" fill="#e94560"/>

  <!-- Left bar tick marks -->
  <rect x="0" y="100" width="16" height="2" fill="#e94560" opacity="0.5"/>
  <rect x="0" y="200" width="16" height="2" fill="#e94560" opacity="0.5"/>
  <rect x="0" y="300" width="16" height="2" fill="#e94560" opacity="0.5"/>
  <rect x="0" y="400" width="16" height="2" fill="#e94560" opacity="0.5"/>
  <rect x="0" y="500" width="16" height="2" fill="#e94560" opacity="0.5"/>

  <!-- Right bar tick marks -->
  <rect x="374" y="100" width="16" height="2" fill="#e94560" opacity="0.5"/>
  <rect x="374" y="200" width="16" height="2" fill="#e94560" opacity="0.5"/>
  <rect x="374" y="300" width="16" height="2" fill="#e94560" opacity="0.5"/>
  <rect x="374" y="400" width="16" height="2" fill="#e94560" opacity="0.5"/>
  <rect x="374" y="500" width="16" height="2" fill="#e94560" opacity="0.5"/>

  <!-- Bottom caption -->
  <rect x="0" y="520" width="390" height="80" fill="#0f3460"/>
  <rect x="0" y="520" width="390" height="3" fill="#e94560"/>
  <rect x="17" y="523" width="356" height="1" fill="#e94560" opacity="0.3"/>
</svg>
